# xmcd
#
# Track frame offsets: 
#        150
#        24679
#        51099
#        86656
#        113493
#        132510
#        156637
#        174054
#        195341
#        221270
#        238355
#        259922
#        284941
#
# Disc length: 4125 seconds
#
# Revision: 1
# Processed by: cddbd v1.5.2PL0 Copyright (c) Steve Scherf et al.
# Submitted via: ExactAudioCopy v0.95a5
#
DISCID=bf101b0d
DTITLE=Eric Clapton - Pilgrim
DYEAR=1999
DGENRE=Blues
TTITLE0=My Father's Eyes
TTITLE1=Pilgrim
TTITLE2=Broken Hearted
TTITLE3=One Chance
TTITLE4=Circus
TTITLE5=Going down slow
TTITLE6=Fall like rain
TTITLE7=Born in Time
TTITLE8=Sink an tired
TTITLE9=Needs his woman
TTITLE10=She's gone
TTITLE11=You were there
TTITLE12=Inside of me
EXTD=
EXTT0=
EXTT1=
EXTT2=
EXTT3=
EXTT4=
EXTT5=
EXTT6=
EXTT7=
EXTT8=
EXTT9=
EXTT10=
EXTT11=
EXTT12=
PLAYORDER=
